Coordinates
version=1
nRows=54
nColumns=12
inDegrees=yes

Units are S.I. units (second, meters, Newtons, ...)
Angles are in degrees

endheader
time	SC_y	SC_z	SC_x	AC_y	AC_z	AC_x	GH_y	GH_z	GH_yy	EL_x	PS_y
       0.0              -58.48          8.113          72.51           32.7         -3.178         -2.995         -115.5          69.89         -103.5          27.28          120.0
  0.004813              -58.48          8.112          72.51           32.7         -3.179         -2.992         -115.5          69.88         -103.5          27.28          120.0
  0.009627              -58.47          8.111          72.51          32.71         -3.181          -2.99         -115.5          69.88         -103.5          27.29          120.0
   0.01444              -58.47           8.11          72.52          32.71         -3.183         -2.987         -115.5          69.87         -103.5           27.3          120.0
   0.01925              -58.47          8.109          72.52          32.71         -3.184         -2.984         -115.4          69.86         -103.5          27.31          120.0
   0.02407              -58.46          8.108          72.52          32.71         -3.186         -2.981         -115.4          69.86         -103.4          27.33          120.0
   0.02888              -58.46          8.106          72.52          32.71         -3.188         -2.978         -115.4          69.85         -103.4          27.34          120.0
   0.03369              -58.45          8.105          72.52          32.71         -3.191         -2.975         -115.3          69.84         -103.4          27.35          120.0
   0.03851              -58.45          8.103          72.52          32.72         -3.193         -2.971         -115.3          69.83         -103.3          27.36          120.0
   0.04332              -58.44          8.102          72.52          32.72         -3.196         -2.967         -115.3          69.82         -103.3          27.38          120.0
   0.04813              -58.44            8.1          72.53          32.72         -3.198         -2.963         -115.2          69.81         -103.3           27.4          120.0
   0.05295              -58.43          8.098          72.53          32.73         -3.201         -2.959         -115.2           69.8         -103.2          27.41          120.0
   0.05776              -58.43          8.096          72.53          32.73         -3.204         -2.954         -115.1          69.79         -103.2          27.43          120.0
   0.06257              -58.42          8.093          72.53          32.73         -3.208         -2.949         -115.1          69.77         -103.2          27.45          120.0
   0.06739              -58.41          8.091          72.53          32.74         -3.212         -2.943         -115.0          69.76         -103.1          27.47          120.0
    0.0722              -58.41          8.088          72.54          32.74         -3.216         -2.937         -114.9          69.74         -103.1           27.5          120.0
   0.07701               -58.4          8.086          72.54          32.74          -3.22          -2.93         -114.9          69.73         -103.0          27.52          120.0
   0.08183              -58.39          8.082          72.54          32.75         -3.225         -2.923         -114.8          69.71         -103.0          27.55          120.0
   0.08664              -58.38          8.079          72.55          32.75          -3.23         -2.915         -114.7          69.69         -102.9          27.58          120.0
   0.09145              -58.37          8.075          72.55          32.76         -3.236         -2.906         -114.6          69.67         -102.8          27.61          120.0
   0.09627              -58.35          8.071          72.55          32.77         -3.242         -2.896         -114.5          69.64         -102.7          27.65          120.0
    0.1011              -58.34          8.066          72.56          32.77         -3.249         -2.886         -114.4          69.62         -102.7          27.69          120.0
    0.1059              -58.32          8.061          72.56          32.78         -3.257         -2.874         -114.3          69.59         -102.6          27.74          120.0
    0.1107              -58.31          8.056          72.57          32.79         -3.265         -2.861         -114.2          69.55         -102.5          27.78          120.0
    0.1155              -58.29           8.05          72.58           32.8         -3.274         -2.847         -114.0          69.52         -102.3          27.84          119.9
    0.1203              -58.27          8.043          72.58          32.81         -3.285         -2.831         -113.9          69.48         -102.2           27.9          119.9
    0.1251              -58.25          8.035          72.59          32.82         -3.297         -2.813         -113.7          69.43         -102.1          27.97          119.9
      0.13              -58.22          8.026           72.6          32.83          -3.31         -2.793         -113.5          69.38         -101.9          28.05          119.9
    0.1348              -58.19          8.017          72.61          32.85         -3.325          -2.77         -113.2          69.33         -101.7          28.13          119.9
    0.1396              -58.16          8.005          72.62          32.86         -3.342         -2.744         -113.0          69.26         -101.5          28.23          119.9
    0.1444              -58.12          7.993          72.63          32.88         -3.361         -2.715         -112.7          69.19         -101.3          28.34          119.9
    0.1492              -58.08          7.978          72.65           32.9         -3.383         -2.681         -112.3           69.1         -101.0          28.47          119.8
     0.154              -58.03          7.961          72.66          32.93         -3.409         -2.641         -111.9           69.0         -100.7          28.62          119.8
    0.1588              -57.97          7.942          72.68          32.96         -3.439         -2.596         -111.4          68.89         -100.3           28.8          119.8
    0.1637               -57.9          7.919          72.71          32.99         -3.474         -2.543         -110.9          68.76         -99.91           29.0          119.7
    0.1685              -57.82          7.892          72.73          33.03         -3.515          -2.48         -110.2           68.6          -99.4          29.24          119.7
    0.1733              -57.72           7.86          72.76          33.08         -3.563         -2.405         -109.5          68.41         -98.81          29.52          119.6
    0.1781              -57.61          7.821           72.8          33.14         -3.622         -2.316         -108.5          68.19         -98.09          29.87          119.6
    0.1829              -57.47          7.774          72.85          33.21         -3.693         -2.208         -107.4          67.92         -97.22          30.28          119.5
    0.1877               -57.3          7.717           72.9          33.29         -3.779         -2.076         -106.1          67.59         -96.16          30.78          119.4
    0.1925              -57.09          7.647          72.97           33.4         -3.886         -1.913         -104.4          67.18         -94.85           31.4          119.3
    0.1973              -56.83           7.56          73.06          33.53         -4.019         -1.709         -102.3          66.67         -93.22          32.18          119.2
    0.2022               -56.5          7.449          73.17          33.69         -4.187         -1.453         -99.64          66.03         -91.17          33.16          119.0
     0.207              -56.08          7.309          73.31           33.9           -4.4         -1.127         -96.29          65.21         -88.56           34.4          118.8
    0.2118              -55.54          7.129          73.49          34.17         -4.672        -0.7107         -91.99          64.17         -85.21          35.99          118.5
    0.2166              -54.85          6.899          73.72          34.51         -5.022        -0.1758         -86.47          62.83         -80.92          38.03          118.1
    0.2214              -53.97          6.605          74.01          34.95          -5.47         0.5074         -79.42          61.12         -75.44          40.64          117.6
    0.2262              -52.87          6.235          74.38           35.5         -6.032          1.366         -70.56          58.96         -68.55          43.92          117.0
     0.231              -51.52          5.784          74.82          36.17         -6.717          2.413         -59.76          56.34         -60.16          47.91          116.3
    0.2359              -49.96          5.261          75.34          36.95         -7.511          3.627         -47.24           53.3         -50.42          52.54          115.5
    0.2407              -48.27          4.695           75.9          37.79         -8.371          4.941         -33.69          50.01         -39.88          57.56          114.6
    0.2455              -46.58          4.129          76.47          38.63         -9.231          6.255         -20.13          46.72         -29.34          62.57          113.7
    0.2503              -45.02          3.606          76.98          39.41         -10.03          7.468         -7.614          43.68         -19.61           67.2          112.8
    0.2551              -43.67          3.155          77.43          40.08         -10.71          8.515          3.185          41.06         -11.21          71.19          112.1
